<svg xmlns="http://www.w3.org/2000/svg" xmlns:xlink="http://www.w3.org/1999/xlink" id="processonSvg1000" viewBox="292.0 225.5 436.0 130.0" width="436.0" height="130.0"><defs id="ProcessOnDefs1001"><marker id="ProcessOnMarker1027" markerUnits="userSpaceOnUse" orient="auto" markerWidth="16.23606797749979" markerHeight="10.550836550532098" viewBox="-1.0 -1.3763819204711736 16.23606797749979 10.550836550532098" refX="-1.0" refY="3.8990363547948754"><path id="ProcessOnPath1028" d="M12.0 3.8990363547948754L0.0 7.798072709589751V0.0Z" stroke="#323232" stroke-width="2.0" fill="#323232" transform="matrix(1.0,0.0,0.0,1.0,0.0,0.0)"/></marker></defs><g id="ProcessOnG1002"><path id="ProcessOnPath1003" d="M292.0 225.5H728.0V355.5H292.0V225.5Z" fill="none"/><g id="ProcessOnG1004"><g id="ProcessOnG1005" transform="matrix(1.0,0.0,0.0,1.0,312.0,248.0)" opacity="1.0"><path id="ProcessOnPath1006" d="M0.0 4.0Q0.0 0.0 4.0 0.0L141.0 0.0Q145.0 0.0 145.0 4.0L145.0 81.0Q145.0 85.0 141.0 85.0L4.0 85.0Q0.0 85.0 0.0 81.0Z" stroke="#323232" stroke-width="2.0" stroke-dasharray="none" opacity="1.0" fill="#ffffff"/><path id="ProcessOnPath1007" d="M0.0 30.0L145.0 30.0M0.0 60.0L145.0 60.0" stroke="#323232" stroke-width="2.0" stroke-dasharray="none" opacity="1.0" fill="none"/><path id="ProcessOnPath1008" d="M0.0 0.0L145.0 0.0L145.0 85.0L0.0 85.0Z" stroke="none" stroke-width="0.0" stroke-dasharray="none" opacity="1.0" fill="none"/><g id="ProcessOnG1009" transform="matrix(1.0,0.0,0.0,1.0,10.0,6.875)"><text id="ProcessOnText1010" fill="#000000" font-size="13" x="61.5" y="13.325" font-family="微软雅黑" font-weight="bold" font-style="normal" text-decoration="none" family="微软雅黑" text-anchor="middle" size="13">ClassA</text></g><g id="ProcessOnG1011" transform="matrix(1.0,0.0,0.0,1.0,10.0,36.875)"><text id="ProcessOnText1012" fill="#000000" font-size="13" x="61.5" y="13.325" font-family="微软雅黑" font-weight="bold" font-style="normal" text-decoration="none" family="微软雅黑" text-anchor="middle" size="13">- classB:ClassB</text></g><g id="ProcessOnG1013" transform="matrix(1.0,0.0,0.0,1.0,10.0,66.875)"><text id="ProcessOnText1014" fill="#000000" font-size="13" x="61.5" y="13.325" font-family="微软雅黑" font-weight="bold" font-style="normal" text-decoration="none" family="微软雅黑" text-anchor="middle" size="13">+ print()</text></g></g><g id="ProcessOnG1015" transform="matrix(1.0,0.0,0.0,1.0,558.0,245.5)" opacity="1.0"><path id="ProcessOnPath1016" d="M0.0 4.0Q0.0 0.0 4.0 0.0L146.0 0.0Q150.0 0.0 150.0 4.0L150.0 86.0Q150.0 90.0 146.0 90.0L4.0 90.0Q0.0 90.0 0.0 86.0Z" stroke="#323232" stroke-width="2.0" stroke-dasharray="none" opacity="1.0" fill="#ffffff"/><path id="ProcessOnPath1017" d="M0.0 30.0L150.0 30.0M0.0 60.0L150.0 60.0" stroke="#323232" stroke-width="2.0" stroke-dasharray="none" opacity="1.0" fill="none"/><path id="ProcessOnPath1018" d="M0.0 0.0L150.0 0.0L150.0 90.0L0.0 90.0Z" stroke="none" stroke-width="0.0" stroke-dasharray="none" opacity="1.0" fill="none"/><g id="ProcessOnG1019" transform="matrix(1.0,0.0,0.0,1.0,10.0,6.875)"><text id="ProcessOnText1020" fill="#000000" font-size="13" x="64.0" y="13.325" font-family="微软雅黑" font-weight="bold" font-style="normal" text-decoration="none" family="微软雅黑" text-anchor="middle" size="13">ClassB</text></g><g id="ProcessOnG1021" transform="matrix(1.0,0.0,0.0,1.0,10.0,36.875)"><text id="ProcessOnText1022" fill="#000000" font-size="13" x="64.0" y="13.325" font-family="微软雅黑" font-weight="bold" font-style="normal" text-decoration="none" family="微软雅黑" text-anchor="middle" size="13"></text></g><g id="ProcessOnG1023" transform="matrix(1.0,0.0,0.0,1.0,10.0,66.875)"><text id="ProcessOnText1024" fill="#000000" font-size="13" x="64.0" y="13.325" font-family="微软雅黑" font-weight="bold" font-style="normal" text-decoration="none" family="微软雅黑" text-anchor="middle" size="13">+ print()</text></g></g><g id="ProcessOnG1025"><path id="ProcessOnPath1026" d="M457.0 290.5L507.5 290.5L507.5 290.5L542.7639320225002 290.5" stroke="#323232" stroke-width="2.0" stroke-dasharray="none" fill="none" marker-end="url(#ProcessOnMarker1027)"/></g></g></g></svg>